<?xml version="1.0"?>
<svg version="1.1" xmlns="http://www.w3.org/2000/svg" width="317" height="200" style="border: dashed 2px #aaa"><path fill="#" d=""/><path fill="#e88e17" d="M21.023193359375,93.756103515625q-0.040283203125-0.491455078125,0.064453125-0.85400390625t0.4189453125-0.59619140625t1.007080078125-0.233642578125l2.59423828125,0q0.53173828125,0,1.393798828125,0.056396484375t1.85302734375,0.169189453125t1.973876953125,0.346435546875t1.796630859375,0.580078125t1.3212890625,0.85400390625t0.507568359375,1.200439453125q0,0.98291015625-0.572021484375,1.844970703125t-1.43408203125,1.554931640625t-1.82080078125,1.232666015625t-1.716064453125,0.974853515625q2.9970703125,0.66064453125,4.68896484375,2.7392578125t1.69189453125,5.1884765625q0,1.6435546875-0.62841796875,3.246826171875t-1.716064453125,2.892333984375t-2.578125,2.07861328125t-3.198486328125,0.78955078125q-0.2255859375,0-0.507568359375-0.04833984375t-0.515625-0.153076171875t-0.40283203125-0.298095703125t-0.169189453125-0.49951171875q0-1.41796875,1.53076171875-1.41796875q0.2578125,0,0.604248046875,0.072509765625t0.539794921875,0.298095703125q0.88623046875-0.37060546875,1.619384765625-1.17626953125t1.24072265625-1.796630859375t0.78955078125-2.07861328125t0.281982421875-1.973876953125q0-1.0634765625-0.314208984375-2.167236328125t-0.910400390625-2.04638671875t-1.46630859375-1.587158203125t-1.998046875-0.8056640625q-0.2900390625-0.0322265625-0.636474609375-0.04833984375l-0.69287109375-0.0322265625t-0.6767578125-0.0966796875t-0.572021484375-0.2578125q0.12890625,2.6748046875,0.330322265625,5.33349609375t0.539794921875,5.33349609375q0.12890625,0.12890625,0.17724609375,0.378662109375t0.08056640625,0.53173828125t0.0322265625,0.539794921875l0,0.43505859375q0,0.2900390625-0.193359375,0.475341796875t-0.459228515625,0.298095703125t-0.56396484375,0.14501953125t-0.523681640625,0.0322265625q-0.72509765625,0-1.11181640625-0.193359375t-0.5478515625-0.56396484375t-0.20947265625-0.845947265625t-0.08056640625-1.039306640625q-0.43505859375-4.49560546875-0.62841796875-8.89453125t-0.193359375-8.89453125q0-0.53173828125-0.040283203125-1.023193359375z M23.99609375,93.0712890625q0,1.98193359375,0.12890625,3.971923828125t0.2255859375,3.971923828125q0.72509765625-0.43505859375,1.9013671875-1.023193359375t2.280029296875-1.297119140625t1.893310546875-1.56298828125t0.78955078125-1.85302734375q0-0.78955078125-0.9345703125-1.200439453125t-2.17529296875-0.6123046875t-2.425048828125-0.249755859375t-1.683837890625-0.14501953125z M38.073784179688,105.97802734375q0-0.66064453125,0.233642578125-1.11181640625t0.990966796875-0.451171875q0.2900390625,0,0.72509765625,0.088623046875t0.49951171875,0.443115234375q0.1611328125,0.95068359375,0.17724609375,2.0625t0.11279296875,2.0947265625q0.37060546875-0.72509765625,0.95068359375-1.56298828125t1.3212890625-1.546875t1.611328125-1.17626953125t1.7724609375-0.46728515625q0.064453125,0,0.24169921875,0.04833984375t0.330322265625,0.136962890625t0.185302734375,0.201416015625t-0.17724609375,0.20947265625q-0.064453125,0.193359375-0.27392578125,0.233642578125t-0.37060546875,0.040283203125q-0.0966796875,0-0.30615234375-0.08056640625q-1.1923828125,0.62841796875-2.0302734375,1.7080078125t-1.36962890625,2.392822265625t-0.7734375,2.771484375t-0.24169921875,2.843994140625q0,0.69287109375-0.314208984375,0.837890625t-1.007080078125,0.14501953125q-0.37060546875,0-0.781494140625-0.08056640625t-0.572021484375-0.515625q-0.2900390625-0.91845703125-0.475341796875-2.11083984375t-0.281982421875-2.457275390625t-0.136962890625-2.489501953125t-0.040283203125-2.20751953125z M49.525009765625,110.48974609375q0-1.095703125,0.298095703125-2.11083984375t0.894287109375-1.812744140625t1.490478515625-1.27294921875t2.070556640625-0.475341796875q0.72509765625,0,1.603271484375,0.217529296875t1.651611328125,0.64453125t1.2890625,1.087646484375t0.515625,1.5146484375q0,0.40283203125-0.136962890625,0.6123046875t-0.555908203125,0.20947265625l-0.17724609375-0.0322265625q0.46728515625,1.2568359375,0.8056640625,2.578125t0.66064453125,2.642578125q0.12890625,0.2578125,0.193359375,0.459228515625t0.064453125,0.394775390625q0,0.2578125-0.14501953125,0.427001953125t-0.378662109375,0.249755859375t-0.4833984375,0.11279296875t-0.443115234375,0.0322265625q-0.69287109375,0-1.039306640625-0.24169921875t-0.49951171875-0.66064453125t-0.185302734375-0.942626953125t-0.12890625-1.055419921875q-0.193359375,0.62841796875-0.507568359375,1.224609375t-0.7412109375,1.071533203125t-1.007080078125,0.75732421875t-1.30517578125,0.281982421875q-1.0634765625,0-1.78857421875-0.6123046875t-1.168212890625-1.506591796875t-0.64453125-1.909423828125t-0.201416015625-1.88525390625z M51.813095703125,110.26416015625q0,0.59619140625,0.08056640625,1.2568359375t0.265869140625,1.30517578125t0.475341796875,1.216552734375t0.72509765625,1.007080078125q0.78955078125-0.85400390625,1.168212890625-2.07861328125t0.6767578125-2.360595703125t0.6767578125-1.94970703125t1.168212890625-0.813720703125q0.49951171875,0,0.837890625,0.17724609375q-0.1611328125-0.40283203125-0.53173828125-0.781494140625t-0.829833984375-0.69287109375t-0.95068359375-0.515625t-0.926513671875-0.201416015625q-0.12890625,0-0.298095703125,0.040283203125t-0.265869140625,0.008056640625q-0.66064453125,0.193359375-1.087646484375,0.668701171875t-0.69287109375,1.119873046875t-0.378662109375,1.3212890625t-0.11279296875,1.27294921875z M63.489907226563,117.03173828125l0.33837890625-0.40283203125q-0.064453125-2.70703125-0.14501953125-5.39794921875t-0.08056640625-5.349609375q0-3.30322265625,0.394775390625-6.388916015625t0.781494140625-6.324462890625q0.0322265625-0.193359375,0.185302734375-0.314208984375t0.378662109375-0.201416015625t0.459228515625-0.11279296875t0.427001953125-0.0322265625q0.2578125,0,0.64453125,0.0966796875t0.7734375,0.56396484375q0,0.1611328125,0.024169921875,0.281982421875t0.024169921875,0.281982421875q0,1.224609375-0.330322265625,2.62646484375t-0.443115234375,2.69091796875q-0.12890625,1.5791015625-0.17724609375,3.1259765625t-0.04833984375,3.14208984375l0.0322265625,1.41796875q0.322265625-0.40283203125,0.91845703125-1.03125t1.2890625-1.216552734375t1.3857421875-1.007080078125t1.2568359375-0.4189453125q0.85400390625,0,1.184326171875,0.4833984375t0.330322265625,1.27294921875q0,0.72509765625-0.314208984375,1.5146484375t-0.82177734375,1.538818359375t-1.152099609375,1.345458984375t-1.27294921875,0.88623046875q0.85400390625,1.0634765625,1.748291015625,2.0302734375t1.957763671875,1.82080078125l0,0.37060546875q-0.0322265625,0.1611328125-0.201416015625,0.24169921875t-0.37060546875,0.12890625t-0.394775390625,0.072509765625t-0.322265625,0.024169921875q-0.78955078125,0-1.522705078125-0.46728515625t-1.36962890625-1.14404296875t-1.200439453125-1.43408203125t-1.03125-1.3212890625q0.0966796875,1.85302734375,0.217529296875,3.697998046875t0.120849609375,3.697998046875q0,0.2255859375-0.201416015625,0.378662109375t-0.46728515625,0.233642578125t-0.539794921875,0.11279296875t-0.451171875,0.0322265625q-0.95068359375,0-1.345458984375-0.346435546875t-0.668701171875-1.200439453125z M66.793129882813,109.4423828125q0.40283203125,0,0.958740234375-0.346435546875t1.152099609375-0.862060546875t1.11181640625-1.087646484375t0.829833984375-1.087646484375t0.314208984375-0.829833984375t-0.43505859375-0.281982421875q-0.1611328125,0-0.66064453125,0.46728515625t-1.11181640625,1.14404296875t-1.224609375,1.46630859375t-0.9345703125,1.41796875z M76.53634765625,111.150390625q0-1.1279296875,0.249755859375-2.65869140625t0.845947265625-2.900390625t1.571044921875-2.328369140625t2.457275390625-0.958740234375q1.3857421875,0,2.07861328125,0.797607421875t0.69287109375,2.151123046875q0,0.88623046875-0.330322265625,1.941650390625t-0.942626953125,1.998046875t-1.4501953125,1.571044921875t-1.869140625,0.62841796875l-0.4189453125-0.0322265625q0,0.43505859375,0.12890625,1.168212890625t0.378662109375,1.458251953125t0.64453125,1.27294921875t0.958740234375,0.5478515625q0.82177734375,0,1.5791015625-0.66064453125t1.43408203125-1.46630859375t1.2568359375-1.46630859375t1.0634765625-0.66064453125q0.2578125,0,0.53173828125,0.08056640625t0.30615234375,0.451171875q0,0.2255859375-0.120849609375,0.37060546875t-0.217529296875,0.322265625q-0.49951171875,0.85400390625-1.087646484375,1.62744140625t-1.329345703125,1.40185546875t-1.619384765625,0.990966796875t-1.941650390625,0.362548828125q-1.3857421875,0-2.30419921875-0.491455078125t-1.482421875-1.3212890625t-0.813720703125-1.91748046875t-0.249755859375-2.280029296875z M79.420625,109.92578125l0.451171875,0.40283203125q0.322265625,0.2900390625,0.64453125,0.12890625t0.580078125-0.588134765625t0.475341796875-1.055419921875t0.38671875-1.2890625t0.249755859375-1.2890625t0.08056640625-1.04736328125l0-0.5478515625t-0.04833984375-0.580078125t-0.169189453125-0.459228515625t-0.378662109375-0.233642578125q-0.08056640625-0.01611328125-0.14501953125-0.01611328125q-0.5478515625,0-0.9345703125,0.69287109375q-0.4189453125,0.7734375-0.6767578125,1.877197265625t-0.37060546875,2.263916015625t-0.14501953125,1.740234375z M89.341088867187,100.2578125q0-0.2255859375,0.4833984375-0.38671875t1.095703125-0.265869140625t1.184326171875-0.153076171875t0.781494140625-0.08056640625q0-0.43505859375,0.0322265625-0.878173828125t0.17724609375-0.78955078125t0.459228515625-0.555908203125t0.878173828125-0.20947265625q0.46728515625,0,0.708984375,0.11279296875t0.515625,0.46728515625q0.064453125,0.193359375,0.064453125,0.37060546875l0,0.539794921875t-0.0322265625,0.555908203125q0.59619140625-0.064453125,1.184326171875-0.153076171875t1.184326171875-0.088623046875q0.43505859375,0,0.59619140625,0.01611328125t0.322265625,0.38671875q0.12890625,0.37060546875-0.314208984375,0.56396484375t-1.0634765625,0.2900390625t-1.232666015625,0.14501953125t-0.7412109375,0.04833984375q-0.193359375,2.771484375-0.394775390625,5.49462890625t-0.201416015625,5.52685546875q0,1.2568359375,0.08056640625,2.59423828125t0.451171875,2.52978515625q0.0966796875,0.37060546875,0.322265625,0.69287109375t0.2255859375,0.69287109375q0,0.2255859375-0.17724609375,0.3544921875t-0.427001953125,0.217529296875t-0.49951171875,0.104736328125t-0.410888671875,0.01611328125q-1.01513671875,0-1.546875-0.75732421875t-0.765380859375-1.812744140625t-0.249755859375-2.167236328125t-0.01611328125-1.8046875q0-1.41796875,0.056396484375-2.900390625t0.136962890625-2.9326171875t0.2255859375-2.8359375t0.33837890625-2.578125q-0.56396484375,0.064453125-1.103759765625,0.14501953125t-1.103759765625,0.08056640625q-0.12890625,0-0.346435546875-0.01611328125t-0.410888671875-0.08056640625t-0.330322265625-0.17724609375t-0.136962890625-0.322265625z M107.95740722656,101.85302734375l0-1.24072265625l0-1.27294921875q0.01611328125-1.2890625,0.104736328125-2.473388671875t0.249755859375-1.973876953125q0.0966796875-0.43505859375,0.580078125-0.53173828125t0.837890625-0.0966796875q0.66064453125,0,0.974853515625,0.1611328125t0.410888671875,0.459228515625t0.08056640625,0.708984375t-0.01611328125,0.942626953125q0,0.75732421875-0.0322265625,2.11083984375t-0.04833984375,2.9970703125l0,0.82177734375q0,1.24072265625,0.0322265625,2.56201171875q0.04833984375,1.7724609375,0.185302734375,3.391845703125t0.378662109375,2.91650390625t0.6767578125,1.989990234375q0.69287109375-0.62841796875,1.3857421875-1.764404296875t1.3212890625-2.553955078125t1.200439453125-2.989013671875t1.039306640625-3.069580078125t0.797607421875-2.81982421875t0.491455078125-2.23974609375q0.2578125-1.3212890625,0.346435546875-2.69091796875t0.088623046875-3.04541015625q0.49951171875-0.59619140625,0.7734375-0.749267578125t0.8701171875-0.153076171875q0.2900390625,0,0.588134765625,0.04833984375t0.572021484375,0.2255859375l0.2255859375,0.3544921875l0,0.40283203125q0,2.9326171875-0.281982421875,5.953857421875t-0.59619140625,6.07470703125t-0.59619140625,6.123046875t-0.281982421875,6.098876953125q0,0.46728515625,0.040283203125,0.990966796875t0.169189453125,0.990966796875l-0.064453125,0.193359375q-0.2255859375,0.37060546875-0.7412109375,0.46728515625t-0.88623046875,0.0966796875q-0.78955078125,0-1.184326171875-0.233642578125t-0.523681640625-0.64453125t-0.11279296875-0.95068359375t0.01611328125-1.168212890625q0-2.17529296875,0.193359375-4.423095703125t0.46728515625-4.423095703125q-0.2578125,0.75732421875-0.6123046875,1.828857421875t-0.829833984375,2.14306640625t-1.103759765625,1.9658203125t-1.3857421875,1.281005859375l0.0322265625-0.0322265625l-0.12890625,0.064453125l0.0322265625,0q-0.46728515625,0.2578125-0.862060546875,0.346435546875t-0.926513671875,0.088623046875q-1.0634765625,0-1.764404296875-0.62841796875t-1.135986328125-1.619384765625t-0.64453125-2.2236328125t-0.298095703125-2.473388671875t-0.088623046875-2.360595703125l0-1.844970703125q0-0.88623046875-0.01611328125-2.11083984375z M113.69373535156,114.67919921875q0.0322265625,0,0.0322265625-0.0322265625l0.0322265625,0q-0.0322265625,0.0322265625-0.064453125,0.0322265625z M125.370546875,116.2099609375q0-0.46728515625,0.040283203125-0.98291015625t0.072509765625-0.966796875l0.0966796875-2.4169921875q0.1611328125-2.900390625,0.394775390625-5.7041015625t0.394775390625-5.671875q0.0966796875-1.5791015625,0.14501953125-3.101806640625t0.14501953125-3.101806640625q-0.064453125-0.12890625-0.064453125-0.17724609375q0-0.2255859375,0.169189453125-0.3544921875t0.394775390625-0.217529296875t0.475341796875-0.120849609375t0.378662109375-0.0322265625l0.37060546875,0q0.49951171875,0.064453125,0.72509765625,0.314208984375t0.2900390625,0.59619140625t0.0322265625,0.7412109375t-0.0322265625,0.733154296875q0,2.33642578125-0.11279296875,4.761474609375t-0.2578125,4.8662109375t-0.265869140625,4.88232421875t-0.120849609375,4.825927734375l0,1.1279296875q0,0.75732421875-0.427001953125,0.9990234375t-1.184326171875,0.24169921875q-0.66064453125,0-1.16015625-0.2900390625t-0.49951171875-0.95068359375z M132.10058105469,100.2578125q0-0.2255859375,0.4833984375-0.38671875t1.095703125-0.265869140625t1.184326171875-0.153076171875t0.781494140625-0.08056640625q0-0.43505859375,0.0322265625-0.878173828125t0.17724609375-0.78955078125t0.459228515625-0.555908203125t0.878173828125-0.20947265625q0.46728515625,0,0.708984375,0.11279296875t0.515625,0.46728515625q0.064453125,0.193359375,0.064453125,0.37060546875l0,0.539794921875t-0.0322265625,0.555908203125q0.59619140625-0.064453125,1.184326171875-0.153076171875t1.184326171875-0.088623046875q0.43505859375,0,0.59619140625,0.01611328125t0.322265625,0.38671875q0.12890625,0.37060546875-0.314208984375,0.56396484375t-1.0634765625,0.2900390625t-1.232666015625,0.14501953125t-0.7412109375,0.04833984375q-0.193359375,2.771484375-0.394775390625,5.49462890625t-0.201416015625,5.52685546875q0,1.2568359375,0.08056640625,2.59423828125t0.451171875,2.52978515625q0.0966796875,0.37060546875,0.322265625,0.69287109375t0.2255859375,0.69287109375q0,0.2255859375-0.17724609375,0.3544921875t-0.427001953125,0.217529296875t-0.49951171875,0.104736328125t-0.410888671875,0.01611328125q-1.01513671875,0-1.546875-0.75732421875t-0.765380859375-1.812744140625t-0.249755859375-2.167236328125t-0.01611328125-1.8046875q0-1.41796875,0.056396484375-2.900390625t0.136962890625-2.9326171875t0.2255859375-2.8359375t0.33837890625-2.578125q-0.56396484375,0.064453125-1.103759765625,0.14501953125t-1.103759765625,0.08056640625q-0.12890625,0-0.346435546875-0.01611328125t-0.410888671875-0.08056640625t-0.330322265625-0.17724609375t-0.136962890625-0.322265625z M144.42192382812,110.10302734375q0-1.482421875,0.346435546875-2.908447265625t0.588134765625-2.843994140625q0.064453125-0.37060546875,0.507568359375-0.459228515625t0.749267578125-0.088623046875q0.53173828125,0,0.85400390625,0.1611328125q0.12890625,0.064453125,0.24169921875,0.14501953125t0.11279296875,0.20947265625q0,1.3857421875-0.330322265625,2.70703125t-0.330322265625,2.8037109375q0,0.49951171875,0.072509765625,0.942626953125t0.136962890625,0.878173828125l0.0966796875,0.46728515625q0,0.12890625,0.01611328125,0.2255859375t0.04833984375,0.2255859375q0,0.2900390625-0.410888671875,0.394775390625t-0.717041015625,0.104736328125q-0.46728515625,0-0.862060546875-0.185302734375t-0.620361328125-0.636474609375l-0.2255859375-0.46728515625q-0.193359375-0.37060546875-0.193359375-0.829833984375t-0.08056640625-0.845947265625z M145.45317382812,100.40283203125l0-0.30615234375q0-0.75732421875,0.378662109375-1.353515625t1.135986328125-0.59619140625q0.0966796875,0,0.185302734375,0.01611328125t0.185302734375,0.01611328125q0.193359375,0.0322265625,0.507568359375,0.153076171875t0.314208984375,0.378662109375l0,0.0322265625q-0.064453125,0.12890625-0.08056640625,0.265869140625t-0.08056640625,0.233642578125l0.0322265625-0.0322265625q-0.193359375,0.49951171875-0.314208984375,0.8056640625t-0.265869140625,0.491455078125t-0.362548828125,0.265869140625t-0.620361328125,0.08056640625q-0.064453125,0-0.2255859375-0.01611328125t-0.346435546875-0.064453125t-0.314208984375-0.12890625t-0.12890625-0.24169921875z M151.49839355469,106.45336914062q-0.040283203125-0.539794921875,0.064453125-0.990966796875t0.4189453125-0.733154296875t1.007080078125-0.281982421875q0.1611328125,0,0.394775390625,0.040283203125t0.459228515625,0.104736328125t0.378662109375,0.193359375t0.153076171875,0.3544921875l0,1.82080078125q0.62841796875-0.72509765625,1.36962890625-1.039306640625t1.69189453125-0.314208984375q0.72509765625,0,1.43408203125,0.330322265625t1.33740234375,0.878173828125t1.087646484375,1.20849609375t0.668701171875,1.3212890625q0.12890625-0.59619140625,0.2900390625-1.458251953125t0.475341796875-1.651611328125t0.829833984375-1.353515625t1.36962890625-0.56396484375q0.91845703125,0,1.546875,0.66064453125t1.023193359375,1.716064453125t0.59619140625,2.360595703125t0.298095703125,2.578125t0.0966796875,2.376708984375l0,1.732177734375q0,0.193359375-0.14501953125,0.314208984375t-0.362548828125,0.185302734375t-0.451171875,0.08056640625t-0.362548828125,0.01611328125q-0.49951171875,0-0.910400390625-0.153076171875t-0.410888671875-0.781494140625l0-1.4501953125t-0.0322265625-1.877197265625t-0.11279296875-2.01416015625t-0.20947265625-1.828857421875t-0.330322265625-1.3212890625t-0.491455078125-0.515625q-0.40283203125,0-0.580078125,0.451171875t-0.298095703125,1.14404296875t-0.185302734375,1.46630859375t-0.17724609375,1.46630859375t-0.362548828125,1.135986328125t-0.684814453125,0.443115234375q-0.46728515625,0-0.82177734375-0.443115234375t-0.700927734375-1.103759765625t-0.69287109375-1.41796875t-0.765380859375-1.41796875q-0.4189453125-0.6767578125-0.90234375-1.095703125q-0.43505859375-0.40283203125-0.98291015625-0.38671875l-0.08056640625,0q-0.72509765625,0.0322265625-1.135986328125,0.523681640625t-0.62841796875,1.200439453125t-0.265869140625,1.522705078125t-0.04833984375,1.426025390625q0,0.580078125,0.0966796875,1.353515625q0.064453125,0.515625,0.064453125,0.98291015625q0,0.24169921875-0.01611328125,0.46728515625q-0.04833984375,0.6767578125-0.362548828125,1.135986328125t-1.168212890625,0.459228515625q-0.322265625,0-0.8056640625-0.064453125t-0.64453125-0.43505859375q-0.37060546875-0.66064453125-0.56396484375-1.667724609375t-0.2900390625-2.07861328125t-0.11279296875-2.126953125t-0.01611328125-1.812744140625q0-0.53173828125-0.040283203125-1.071533203125z M171.81998046875,110.48974609375q0-1.095703125,0.298095703125-2.11083984375t0.894287109375-1.812744140625t1.490478515625-1.27294921875t2.070556640625-0.475341796875q0.72509765625,0,1.603271484375,0.217529296875t1.651611328125,0.64453125t1.2890625,1.087646484375t0.515625,1.5146484375q0,0.40283203125-0.136962890625,0.6123046875t-0.555908203125,0.20947265625l-0.17724609375-0.0322265625q0.46728515625,1.2568359375,0.8056640625,2.578125t0.66064453125,2.642578125q0.12890625,0.2578125,0.193359375,0.459228515625t0.064453125,0.394775390625q0,0.2578125-0.14501953125,0.427001953125t-0.378662109375,0.249755859375t-0.4833984375,0.11279296875t-0.443115234375,0.0322265625q-0.69287109375,0-1.039306640625-0.24169921875t-0.49951171875-0.66064453125t-0.185302734375-0.942626953125t-0.12890625-1.055419921875q-0.193359375,0.62841796875-0.507568359375,1.224609375t-0.7412109375,1.071533203125t-1.007080078125,0.75732421875t-1.30517578125,0.281982421875q-1.0634765625,0-1.78857421875-0.6123046875t-1.168212890625-1.506591796875t-0.64453125-1.909423828125t-0.201416015625-1.88525390625z M174.10806640625,110.26416015625q0,0.59619140625,0.08056640625,1.2568359375t0.265869140625,1.30517578125t0.475341796875,1.216552734375t0.72509765625,1.007080078125q0.78955078125-0.85400390625,1.168212890625-2.07861328125t0.6767578125-2.360595703125t0.6767578125-1.94970703125t1.168212890625-0.813720703125q0.49951171875,0,0.837890625,0.17724609375q-0.1611328125-0.40283203125-0.53173828125-0.781494140625t-0.829833984375-0.69287109375t-0.95068359375-0.515625t-0.926513671875-0.201416015625q-0.12890625,0-0.298095703125,0.040283203125t-0.265869140625,0.008056640625q-0.66064453125,0.193359375-1.087646484375,0.668701171875t-0.69287109375,1.119873046875t-0.378662109375,1.3212890625t-0.11279296875,1.27294921875z M185.78487792969,111.150390625q0-1.1279296875,0.249755859375-2.65869140625t0.845947265625-2.900390625t1.571044921875-2.328369140625t2.457275390625-0.958740234375q1.3857421875,0,2.07861328125,0.797607421875t0.69287109375,2.151123046875q0,0.88623046875-0.330322265625,1.941650390625t-0.942626953125,1.998046875t-1.4501953125,1.571044921875t-1.869140625,0.62841796875l-0.4189453125-0.0322265625q0,0.43505859375,0.12890625,1.168212890625t0.378662109375,1.458251953125t0.64453125,1.27294921875t0.958740234375,0.5478515625q0.82177734375,0,1.5791015625-0.66064453125t1.43408203125-1.46630859375t1.2568359375-1.46630859375t1.0634765625-0.66064453125q0.2578125,0,0.53173828125,0.08056640625t0.30615234375,0.451171875q0,0.2255859375-0.120849609375,0.37060546875t-0.217529296875,0.322265625q-0.49951171875,0.85400390625-1.087646484375,1.62744140625t-1.329345703125,1.40185546875t-1.619384765625,0.990966796875t-1.941650390625,0.362548828125q-1.3857421875,0-2.30419921875-0.491455078125t-1.482421875-1.3212890625t-0.813720703125-1.91748046875t-0.249755859375-2.280029296875z M188.66915527344,109.92578125l0.451171875,0.40283203125q0.322265625,0.2900390625,0.64453125,0.12890625t0.580078125-0.588134765625t0.475341796875-1.055419921875t0.38671875-1.2890625t0.249755859375-1.2890625t0.08056640625-1.04736328125l0-0.5478515625t-0.04833984375-0.580078125t-0.169189453125-0.459228515625t-0.378662109375-0.233642578125q-0.08056640625-0.01611328125-0.14501953125-0.01611328125q-0.5478515625,0-0.9345703125,0.69287109375q-0.4189453125,0.7734375-0.6767578125,1.877197265625t-0.37060546875,2.263916015625t-0.14501953125,1.740234375z"/></svg>
